<svg width="150" height="50" viewBox="0 0 150 50" fill="none" xmlns="http://www.w3.org/2000/svg">
<path fill-rule="evenodd" clip-rule="evenodd" d="M39.4379 12.6636H39.4346C38.0763 9.90114 35.2341 7.99998 31.9479 7.99998C28.6616 7.99998 25.8194 9.90114 24.4611 12.6636H24.4578L14.9893 29.02L15.0095 29.0338C14.3657 30.2166 14 31.5725 14 33.0139C14 37.6189 17.733 41.3519 22.338 41.3519C24.909 41.3519 27.2083 40.1882 28.7378 38.3587L28.7431 38.3623L31.3367 35.27C31.5774 34.983 32.0223 34.9937 32.2489 35.292L34.582 38.3623L34.6889 38.2918C36.2161 40.221 38.5786 41.4588 41.2301 41.4588C45.8351 41.4588 49.5681 37.7257 49.5681 33.1208C49.5681 31.0854 48.8388 29.2204 47.6273 27.7727L39.4379 12.6636ZM35.0875 22.5672C35.0875 24.4598 33.5533 25.9939 31.6608 25.9939C29.7682 25.9939 28.234 24.4598 28.234 22.5672C28.234 20.6747 29.7682 19.1405 31.6608 19.1405C33.5533 19.1405 35.0875 20.6747 35.0875 22.5672ZM33.7837 27.361H29.544L31.0985 32.8726H32.3704L33.7837 27.361Z" fill="#93DD73"/>
<path fill-rule="evenodd" clip-rule="evenodd" d="M84.5999 38.8614V10.5973H90.3312V38.8614H84.5999ZM95.5639 10.5973V38.8614H101.295V10.5973H95.5639ZM106.489 10.5973H112.299V15.1117H106.489V10.5973ZM106.528 38.8614V18.8017H112.259V38.8614H106.528ZM122.36 21.7459C124.009 19.5215 126.142 18.4092 128.759 18.4092C130.8 18.4092 132.475 18.9588 133.784 20.058C135.118 21.1571 135.786 22.7535 135.786 24.8471V38.8614H130.055V26.1033C130.055 25.0827 129.754 24.2452 129.152 23.591C128.576 22.9105 127.83 22.5703 126.914 22.5703C125.893 22.5703 125.017 22.9629 124.284 23.748C123.551 24.5069 123.185 25.436 123.185 26.5351V38.8614H117.453V18.8018H121.732L122.36 21.7459ZM62.9093 33.5619H73.6261L75.5889 38.8614H81.9483L72.1737 11.932H64.9506L55.176 38.8614H61.0251L62.9093 33.5619ZM72.0166 28.969H64.5581L68.2089 18.4092H68.4051C69.8183 22.4918 71.0222 26.0117 72.0166 28.969Z" fill="#1F2D26"/>
</svg>
